<svg xmlns="http://www.w3.org/2000/svg" xmlns:xlink="http://www.w3.org/1999/xlink" width="64" zoomAndPan="magnify" viewBox="0 0 48 48" height="64" preserveAspectRatio="xMidYMid meet" version="1.2"><defs><clipPath id="61f354a24b"><path d="M 20 27 L 24 27 L 24 37.683594 L 20 37.683594 Z M 20 27 "/></clipPath><clipPath id="9c93b06d1a"><path d="M 24 27 L 27 27 L 27 37.683594 L 24 37.683594 Z M 24 27 "/></clipPath><clipPath id="80b4ff68fa"><path d="M 1.183594 9.03125 L 17 9.03125 L 17 21 L 1.183594 21 Z M 1.183594 9.03125 "/></clipPath><clipPath id="c0303a8aec"><path d="M 31 9.03125 L 46.734375 9.03125 L 46.734375 21 L 31 21 Z M 31 9.03125 "/></clipPath></defs><g id="999884e396"><path style=" stroke:none;fill-rule:nonzero;fill:#0080ff;fill-opacity:1;" d="M 19.679688 14.484375 L 19.613281 14.484375 C 19.40625 14.5 19.269531 14.558594 19.210938 14.660156 C 19.125 14.722656 19.042969 14.960938 18.960938 15.371094 L 18.429688 20.199219 C 18.410156 20.429688 18.457031 20.542969 18.570312 20.542969 C 18.59375 20.542969 18.632812 20.535156 18.679688 20.515625 L 20.503906 19.015625 L 23.703125 16.90625 L 23.78125 15.511719 C 23.035156 15.246094 22.277344 15.015625 21.503906 14.828125 C 20.332031 14.558594 19.722656 14.441406 19.679688 14.484375 "/><path style=" stroke:none;fill-rule:nonzero;fill:#0080ff;fill-opacity:1;" d="M 27.84375 14.484375 L 27.910156 14.484375 C 28.117188 14.5 28.253906 14.558594 28.3125 14.660156 C 28.398438 14.722656 28.480469 14.960938 28.5625 15.371094 L 29.09375 20.199219 C 29.113281 20.429688 29.066406 20.542969 28.953125 20.542969 C 28.929688 20.542969 28.890625 20.535156 28.84375 20.515625 L 27.019531 19.015625 L 23.820312 16.90625 L 23.742188 15.511719 C 24.488281 15.246094 25.246094 15.015625 26.019531 14.828125 C 27.191406 14.558594 27.800781 14.441406 27.84375 14.484375 "/><path style=" stroke:none;fill-rule:nonzero;fill:#0080ff;fill-opacity:1;" d="M 23.78125 17.910156 L 23.3125 18.304688 C 21.542969 19.824219 20.308594 20.96875 19.609375 21.738281 C 19.558594 21.859375 19.53125 22.015625 19.53125 22.207031 C 19.542969 22.527344 19.558594 22.742188 19.578125 22.851562 C 19.640625 23.304688 19.703125 23.742188 19.769531 24.164062 L 19.820312 24.398438 C 19.863281 24.601562 19.890625 24.71875 19.902344 24.746094 C 19.921875 24.789062 19.949219 24.796875 19.996094 24.777344 C 21.21875 23.394531 21.898438 22.640625 22.03125 22.523438 C 22.867188 21.664062 23.429688 21.128906 23.714844 20.914062 L 23.953125 20.597656 L 23.78125 17.910156 "/><path style=" stroke:none;fill-rule:nonzero;fill:#0080ff;fill-opacity:1;" d="M 23.742188 17.910156 L 24.210938 18.304688 C 25.980469 19.824219 27.214844 20.96875 27.914062 21.738281 C 27.964844 21.859375 27.992188 22.015625 27.992188 22.207031 C 27.984375 22.527344 27.964844 22.742188 27.945312 22.851562 C 27.882812 23.304688 27.820312 23.742188 27.753906 24.164062 L 27.703125 24.398438 C 27.660156 24.601562 27.632812 24.71875 27.621094 24.746094 C 27.605469 24.789062 27.574219 24.796875 27.53125 24.777344 C 26.304688 23.394531 25.625 22.640625 25.492188 22.523438 C 24.65625 21.664062 24.09375 21.128906 23.808594 20.914062 L 23.570312 20.597656 L 23.742188 17.910156 "/><path style=" stroke:none;fill-rule:nonzero;fill:#0080ff;fill-opacity:1;" d="M 17.703125 12.300781 L 17.621094 12.371094 C 17.40625 12.613281 17.175781 13.265625 16.933594 14.332031 L 16.757812 16.265625 C 16.714844 16.582031 16.589844 17.277344 16.382812 18.351562 C 16.203125 20.234375 15.964844 22.039062 15.667969 23.753906 C 15.652344 23.902344 15.65625 24.039062 15.679688 24.160156 C 15.6875 24.210938 15.726562 24.246094 15.796875 24.269531 C 16.191406 24.230469 16.601562 24.234375 17.03125 24.289062 C 17.183594 24.300781 17.359375 24.363281 17.566406 24.46875 C 17.492188 25.023438 17.460938 25.53125 17.472656 25.988281 L 17.519531 26.636719 C 17.574219 27.042969 17.667969 27.398438 17.804688 27.707031 C 18.082031 28.320312 18.523438 28.738281 19.136719 28.953125 C 19.292969 28.972656 19.511719 28.910156 19.792969 28.765625 C 20.292969 28.382812 21.003906 27.933594 21.933594 27.421875 C 22.445312 27.15625 22.910156 26.972656 23.324219 26.863281 C 23.476562 26.570312 23.554688 26.386719 23.5625 26.316406 C 23.636719 26.054688 23.679688 25.773438 23.679688 25.472656 C 23.660156 24.710938 23.566406 24.316406 23.398438 24.289062 L 20.492188 26.5 C 20 26.859375 19.671875 27.03125 19.507812 27.019531 L 19.378906 26.863281 C 19.355469 26.8125 19.335938 26.75 19.332031 26.671875 L 19.207031 22.367188 C 18.894531 22.308594 18.285156 22.558594 17.378906 23.109375 L 17.40625 22.066406 C 17.457031 20.683594 17.578125 19.335938 17.761719 18.015625 C 17.855469 17.355469 17.960938 16.707031 18.089844 16.0625 C 18.214844 15.421875 18.355469 14.785156 18.515625 14.15625 C 18.539062 14.066406 18.570312 13.988281 18.609375 13.933594 C 18.636719 13.882812 18.703125 13.839844 18.8125 13.8125 C 19.429688 14.0625 20.089844 14.261719 20.792969 14.414062 C 21.296875 14.554688 22.234375 14.667969 23.609375 14.753906 L 23.898438 13.191406 L 17.703125 12.300781 "/><path style=" stroke:none;fill-rule:nonzero;fill:#0080ff;fill-opacity:1;" d="M 29.820312 12.300781 L 29.902344 12.371094 C 30.117188 12.613281 30.347656 13.265625 30.589844 14.332031 L 30.765625 16.265625 C 30.808594 16.582031 30.933594 17.277344 31.140625 18.351562 C 31.320312 20.234375 31.558594 22.039062 31.855469 23.753906 C 31.871094 23.902344 31.867188 24.039062 31.84375 24.160156 C 31.835938 24.210938 31.796875 24.246094 31.726562 24.269531 C 31.335938 24.230469 30.921875 24.234375 30.492188 24.289062 C 30.339844 24.300781 30.164062 24.363281 29.957031 24.46875 C 30.03125 25.023438 30.0625 25.53125 30.050781 25.988281 L 30.003906 26.636719 C 29.949219 27.042969 29.855469 27.398438 29.71875 27.707031 C 29.441406 28.320312 29 28.738281 28.386719 28.953125 C 28.230469 28.972656 28.011719 28.910156 27.730469 28.765625 C 27.230469 28.382812 26.519531 27.933594 25.589844 27.421875 C 25.078125 27.15625 24.613281 26.972656 24.199219 26.863281 C 24.046875 26.570312 23.96875 26.386719 23.960938 26.316406 C 23.886719 26.054688 23.84375 25.773438 23.84375 25.472656 C 23.863281 24.710938 23.957031 24.316406 24.125 24.289062 L 27.03125 26.5 C 27.523438 26.859375 27.851562 27.03125 28.015625 27.019531 L 28.144531 26.863281 C 28.167969 26.8125 28.1875 26.75 28.191406 26.671875 L 28.316406 22.367188 C 28.628906 22.308594 29.238281 22.558594 30.144531 23.109375 L 30.117188 22.066406 C 30.066406 20.683594 29.945312 19.335938 29.761719 18.015625 C 29.671875 17.355469 29.5625 16.707031 29.433594 16.0625 C 29.308594 15.421875 29.167969 14.785156 29.007812 14.15625 C 28.984375 14.066406 28.953125 13.988281 28.914062 13.933594 C 28.886719 13.882812 28.820312 13.839844 28.714844 13.8125 C 28.09375 14.0625 27.433594 14.261719 26.730469 14.414062 C 26.226562 14.554688 25.289062 14.667969 23.914062 14.753906 L 23.625 13.191406 L 29.820312 12.300781 "/><path style=" stroke:none;fill-rule:nonzero;fill:#0080ff;fill-opacity:1;" d="M 17.089844 12.03125 L 16.042969 13.535156 L 14.324219 16.394531 C 14.199219 16.605469 14.121094 16.769531 14.085938 16.890625 C 14.253906 18.144531 14.390625 19.042969 14.492188 19.582031 C 14.535156 19.847656 14.730469 20.832031 15.082031 22.535156 C 15.105469 22.644531 15.128906 22.683594 15.144531 22.648438 C 15.273438 22.316406 15.449219 21.597656 15.667969 20.496094 C 15.722656 20.222656 15.859375 19.207031 16.082031 17.449219 C 16.132812 17.101562 16.1875 16.753906 16.246094 16.398438 C 16.464844 15.125 16.746094 13.671875 17.089844 12.03125 "/><path style=" stroke:none;fill-rule:nonzero;fill:#0080ff;fill-opacity:1;" d="M 30.433594 12.03125 L 31.480469 13.535156 L 33.199219 16.394531 C 33.324219 16.605469 33.40625 16.769531 33.4375 16.890625 C 33.269531 18.144531 33.132812 19.042969 33.03125 19.582031 C 32.988281 19.847656 32.792969 20.832031 32.441406 22.535156 C 32.417969 22.644531 32.394531 22.683594 32.378906 22.648438 C 32.25 22.316406 32.074219 21.597656 31.855469 20.496094 C 31.800781 20.222656 31.664062 19.207031 31.441406 17.449219 C 31.390625 17.101562 31.335938 16.753906 31.277344 16.398438 C 31.058594 15.125 30.777344 13.671875 30.433594 12.03125 "/><path style=" stroke:none;fill-rule:nonzero;fill:#0080ff;fill-opacity:1;" d="M 17.082031 24.792969 L 16.445312 25.84375 C 15.96875 26.863281 15.625 27.683594 15.410156 28.316406 C 15.304688 28.628906 15.230469 28.894531 15.1875 29.113281 C 15.144531 29.332031 15.136719 29.5 15.15625 29.621094 L 15.214844 29.765625 C 15.871094 29.941406 16.453125 30.140625 16.957031 30.359375 C 17.667969 30.691406 18.414062 31.128906 19.195312 31.671875 C 19.273438 31.71875 19.398438 31.777344 19.578125 31.839844 C 19.773438 31.894531 19.976562 31.75 20.179688 31.417969 C 20.652344 30.601562 20.945312 30.0625 21.0625 29.800781 C 21.226562 29.484375 21.328125 29.167969 21.363281 28.847656 C 21.324219 28.796875 21.261719 28.773438 21.179688 28.777344 C 20.042969 29.039062 19.214844 29.160156 18.695312 29.132812 C 17.972656 29.140625 17.429688 29.023438 17.058594 28.777344 C 16.921875 28.621094 16.851562 28.46875 16.859375 28.320312 C 16.894531 27.285156 16.96875 26.109375 17.082031 24.792969 "/><path style=" stroke:none;fill-rule:nonzero;fill:#0080ff;fill-opacity:1;" d="M 30.441406 24.792969 L 31.078125 25.84375 C 31.554688 26.863281 31.898438 27.683594 32.113281 28.316406 C 32.21875 28.628906 32.292969 28.894531 32.335938 29.113281 C 32.378906 29.332031 32.390625 29.5 32.367188 29.621094 L 32.308594 29.765625 C 31.652344 29.941406 31.074219 30.140625 30.566406 30.359375 C 29.855469 30.691406 29.109375 31.128906 28.328125 31.671875 C 28.25 31.71875 28.125 31.777344 27.945312 31.839844 C 27.75 31.894531 27.546875 31.75 27.34375 31.417969 C 26.871094 30.601562 26.578125 30.0625 26.460938 29.800781 C 26.296875 29.484375 26.195312 29.167969 26.160156 28.847656 C 26.199219 28.796875 26.261719 28.773438 26.34375 28.777344 C 27.480469 29.039062 28.308594 29.160156 28.828125 29.132812 C 29.550781 29.140625 30.09375 29.023438 30.464844 28.777344 C 30.601562 28.621094 30.671875 28.46875 30.664062 28.320312 C 30.628906 27.285156 30.554688 26.109375 30.441406 24.792969 "/><g clip-rule="nonzero" clip-path="url(#61f354a24b)"><path style=" stroke:none;fill-rule:nonzero;fill:#0080ff;fill-opacity:1;" d="M 23.054688 27.6875 L 23.050781 27.6875 C 22.78125 28.417969 22.285156 29.613281 21.5625 31.277344 C 21.308594 31.839844 21.019531 32.398438 20.699219 32.953125 L 22.070312 35.511719 C 22.191406 35.75 22.484375 36.367188 22.9375 37.363281 C 23.054688 37.578125 23.140625 37.671875 23.207031 37.652344 C 23.226562 37.640625 23.246094 37.628906 23.253906 37.613281 C 23.175781 36.597656 23.125 35.914062 23.105469 35.566406 C 23.09375 35.425781 23.09375 35.25 23.097656 35.027344 C 23.097656 34.84375 23.101562 34.644531 23.109375 34.425781 C 23.171875 33.117188 23.207031 32.34375 23.214844 32.105469 C 23.226562 31.726562 23.234375 31.402344 23.230469 31.128906 C 23.21875 30.519531 23.1875 29.527344 23.140625 28.15625 C 23.121094 27.871094 23.09375 27.714844 23.054688 27.6875 "/></g><g clip-rule="nonzero" clip-path="url(#9c93b06d1a)"><path style=" stroke:none;fill-rule:nonzero;fill:#0080ff;fill-opacity:1;" d="M 24.46875 27.6875 L 24.472656 27.6875 C 24.742188 28.417969 25.238281 29.613281 25.960938 31.277344 C 26.214844 31.839844 26.503906 32.398438 26.824219 32.953125 L 25.453125 35.511719 C 25.332031 35.75 25.039062 36.367188 24.585938 37.363281 C 24.472656 37.578125 24.382812 37.671875 24.316406 37.652344 C 24.296875 37.640625 24.28125 37.628906 24.269531 37.613281 C 24.347656 36.597656 24.398438 35.914062 24.417969 35.566406 C 24.429688 35.425781 24.429688 35.25 24.425781 35.027344 C 24.425781 34.84375 24.421875 34.644531 24.414062 34.425781 C 24.351562 33.117188 24.316406 32.34375 24.308594 32.105469 C 24.296875 31.726562 24.289062 31.402344 24.292969 31.128906 C 24.304688 30.519531 24.335938 29.527344 24.386719 28.15625 C 24.402344 27.871094 24.429688 27.714844 24.46875 27.6875 "/></g><path style=" stroke:none;fill-rule:nonzero;fill:#0080ff;fill-opacity:1;" d="M 22.269531 10.265625 L 22.191406 10.269531 C 21.75 10.269531 21.242188 10.328125 20.671875 10.445312 C 20.617188 10.457031 20.503906 10.488281 20.328125 10.546875 C 20.0625 10.644531 19.828125 10.738281 19.628906 10.832031 C 19.355469 10.949219 19.105469 11.105469 18.871094 11.300781 C 18.578125 11.570312 18.296875 11.871094 18.027344 12.195312 C 18.03125 12.210938 18.074219 12.199219 18.15625 12.164062 C 18.414062 12.007812 18.683594 11.871094 18.976562 11.753906 C 19.304688 11.628906 19.644531 11.53125 19.996094 11.453125 C 20.058594 11.46875 20.082031 11.496094 20.066406 11.539062 C 19.746094 12.136719 19.613281 12.480469 19.660156 12.570312 C 19.703125 12.578125 19.808594 12.539062 19.964844 12.453125 C 20.742188 11.988281 21.195312 11.726562 21.335938 11.667969 C 21.398438 11.652344 21.425781 11.664062 21.417969 11.707031 L 21.238281 12.367188 C 21.234375 12.402344 21.25 12.421875 21.28125 12.425781 C 21.328125 12.425781 21.425781 12.390625 21.578125 12.316406 C 21.890625 12.167969 22.171875 12.019531 22.429688 11.878906 C 22.492188 11.855469 22.53125 11.84375 22.554688 11.847656 C 22.5625 11.847656 22.566406 11.851562 22.570312 11.855469 C 22.476562 12.140625 22.394531 12.441406 22.324219 12.757812 C 22.292969 12.910156 22.300781 12.992188 22.347656 13.003906 L 22.703125 12.820312 C 22.789062 12.777344 22.859375 12.746094 22.910156 12.734375 C 23.109375 12.671875 23.347656 12.628906 23.628906 12.601562 L 23.617188 10.265625 C 23.484375 10.285156 23.328125 10.292969 23.148438 10.296875 C 22.75 10.273438 22.457031 10.265625 22.269531 10.265625 "/><path style=" stroke:none;fill-rule:nonzero;fill:#0080ff;fill-opacity:1;" d="M 25.257812 10.265625 L 25.332031 10.269531 C 25.773438 10.269531 26.28125 10.328125 26.851562 10.445312 C 26.90625 10.457031 27.019531 10.488281 27.195312 10.546875 C 27.460938 10.644531 27.695312 10.738281 27.894531 10.832031 C 28.167969 10.949219 28.417969 11.105469 28.652344 11.300781 C 28.945312 11.570312 29.226562 11.871094 29.496094 12.195312 C 29.492188 12.210938 29.449219 12.199219 29.367188 12.164062 C 29.113281 12.007812 28.839844 11.871094 28.546875 11.753906 C 28.21875 11.628906 27.878906 11.53125 27.527344 11.453125 C 27.464844 11.46875 27.441406 11.496094 27.457031 11.539062 C 27.777344 12.136719 27.910156 12.480469 27.863281 12.570312 C 27.820312 12.578125 27.71875 12.539062 27.558594 12.453125 C 26.78125 11.988281 26.328125 11.726562 26.1875 11.667969 C 26.125 11.652344 26.097656 11.664062 26.105469 11.707031 L 26.285156 12.367188 C 26.289062 12.402344 26.273438 12.421875 26.246094 12.425781 C 26.195312 12.425781 26.097656 12.390625 25.945312 12.316406 C 25.632812 12.167969 25.351562 12.019531 25.09375 11.878906 C 25.035156 11.855469 24.992188 11.84375 24.96875 11.847656 C 24.960938 11.847656 24.957031 11.851562 24.953125 11.855469 C 25.046875 12.140625 25.128906 12.441406 25.199219 12.757812 C 25.230469 12.910156 25.226562 12.992188 25.175781 13.003906 L 24.820312 12.820312 C 24.734375 12.777344 24.664062 12.746094 24.613281 12.734375 C 24.414062 12.671875 24.175781 12.628906 23.894531 12.601562 L 23.90625 10.265625 C 24.039062 10.285156 24.195312 10.292969 24.375 10.296875 C 24.773438 10.273438 25.066406 10.265625 25.257812 10.265625 "/><g clip-rule="nonzero" clip-path="url(#80b4ff68fa)"><path style=" stroke:none;fill-rule:nonzero;fill:#0080ff;fill-opacity:1;" d="M 9.542969 9.085938 L 8.867188 9.101562 C 7.542969 9.164062 6.347656 9.40625 5.28125 9.835938 L 4.761719 10.0625 C 4.355469 10.261719 4.09375 10.410156 3.984375 10.507812 C 3.804688 10.648438 3.632812 10.820312 3.472656 11.019531 L 3.234375 11.34375 C 2.753906 12.117188 2.40625 13.011719 2.1875 14.023438 C 2.117188 14.328125 2.0625 14.773438 2.027344 15.363281 C 2.054688 17.460938 2.050781 18.5625 2.007812 18.671875 C 1.984375 19.238281 1.726562 19.804688 1.238281 20.367188 C 1.230469 20.414062 1.28125 20.441406 1.390625 20.445312 C 2.054688 20.398438 2.617188 20.023438 3.074219 19.328125 C 3.246094 19.105469 3.40625 18.769531 3.550781 18.324219 C 3.792969 17.617188 4.082031 16.535156 4.421875 15.082031 C 4.464844 14.964844 4.515625 14.855469 4.574219 14.75 C 4.964844 14.109375 5.515625 13.703125 6.226562 13.53125 C 7.261719 13.222656 8.535156 13.390625 10.050781 14.03125 C 10.457031 14.1875 10.953125 14.457031 11.546875 14.832031 C 12.050781 15.171875 12.699219 15.722656 13.492188 16.480469 C 13.585938 16.550781 13.65625 16.582031 13.707031 16.574219 C 14.195312 15.8125 14.78125 14.742188 15.472656 13.359375 C 15.832031 12.597656 16.105469 11.917969 16.285156 11.3125 L 15.5625 11.527344 L 14.996094 11.367188 C 14.632812 11.25 14.289062 11.109375 13.96875 10.953125 C 12.925781 10.167969 12.285156 9.722656 12.046875 9.625 C 11.15625 9.226562 10.320312 9.046875 9.542969 9.085938 "/></g><g clip-rule="nonzero" clip-path="url(#c0303a8aec)"><path style=" stroke:none;fill-rule:nonzero;fill:#0080ff;fill-opacity:1;" d="M 37.980469 9.085938 L 38.65625 9.101562 C 39.980469 9.164062 41.175781 9.40625 42.242188 9.835938 L 42.761719 10.0625 C 43.167969 10.261719 43.429688 10.410156 43.539062 10.507812 C 43.71875 10.648438 43.890625 10.820312 44.050781 11.019531 L 44.289062 11.34375 C 44.769531 12.117188 45.117188 13.011719 45.335938 14.023438 C 45.40625 14.328125 45.460938 14.773438 45.496094 15.363281 C 45.46875 17.460938 45.472656 18.5625 45.515625 18.671875 C 45.539062 19.238281 45.796875 19.804688 46.289062 20.367188 C 46.292969 20.414062 46.242188 20.441406 46.132812 20.445312 C 45.46875 20.398438 44.90625 20.023438 44.449219 19.328125 C 44.277344 19.105469 44.117188 18.769531 43.972656 18.324219 C 43.730469 17.617188 43.441406 16.535156 43.105469 15.082031 C 43.058594 14.964844 43.007812 14.855469 42.949219 14.75 C 42.558594 14.109375 42.007812 13.703125 41.296875 13.53125 C 40.261719 13.222656 38.988281 13.390625 37.472656 14.03125 C 37.066406 14.1875 36.570312 14.457031 35.976562 14.832031 C 35.472656 15.171875 34.824219 15.722656 34.03125 16.480469 C 33.9375 16.550781 33.867188 16.582031 33.816406 16.574219 C 33.328125 15.8125 32.742188 14.742188 32.050781 13.359375 C 31.691406 12.597656 31.417969 11.917969 31.238281 11.3125 L 31.960938 11.527344 L 32.527344 11.367188 C 32.890625 11.25 33.234375 11.109375 33.554688 10.953125 C 34.597656 10.167969 35.238281 9.722656 35.476562 9.625 C 36.371094 9.226562 37.203125 9.046875 37.980469 9.085938 "/></g></g></svg>