<svg xmlns="http://www.w3.org/2000/svg" xmlns:xlink="http://www.w3.org/1999/xlink" width="1920" zoomAndPan="magnify" viewBox="0 0 1440 809.999993" height="1080" preserveAspectRatio="xMidYMid meet" version="1.2"><g id="417f3ec7d4"><path style=" stroke:none;fill-rule:nonzero;fill:#0080ff;fill-opacity:1;" d="M 673.828125 304.65625 L 673.082031 304.675781 C 670.710938 304.847656 669.183594 305.511719 668.507812 306.660156 C 667.554688 307.382812 666.617188 310.066406 665.691406 314.710938 L 659.683594 369.308594 C 659.46875 371.882812 660.003906 373.167969 661.296875 373.167969 C 661.558594 373.1875 661.964844 373.09375 662.515625 372.882812 L 683.160156 355.917969 L 719.328125 332.066406 L 720.183594 316.304688 C 711.75 313.261719 703.179688 310.679688 694.464844 308.550781 C 681.203125 305.496094 674.324219 304.199219 673.828125 304.65625 "/><path style=" stroke:none;fill-rule:nonzero;fill:#0080ff;fill-opacity:1;" d="M 766.132812 304.65625 L 766.878906 304.675781 C 769.25 304.847656 770.777344 305.511719 771.453125 306.660156 C 772.40625 307.382812 773.34375 310.066406 774.265625 314.710938 L 780.277344 369.308594 C 780.492188 371.882812 779.953125 373.167969 778.664062 373.167969 C 778.402344 373.1875 777.996094 373.09375 777.441406 372.882812 L 756.800781 355.917969 L 720.632812 332.066406 L 719.777344 316.304688 C 728.207031 313.261719 736.78125 310.679688 745.496094 308.550781 C 758.757812 305.496094 765.636719 304.199219 766.132812 304.65625 "/><path style=" stroke:none;fill-rule:nonzero;fill:#0080ff;fill-opacity:1;" d="M 720.183594 343.417969 L 714.90625 347.851562 C 694.875 365.054688 680.910156 378.007812 673.019531 386.714844 C 672.4375 388.058594 672.140625 389.820312 672.136719 392.007812 C 672.253906 395.609375 672.4375 398.03125 672.691406 399.28125 C 673.390625 404.390625 674.105469 409.347656 674.839844 414.144531 L 675.402344 416.773438 C 675.898438 419.074219 676.207031 420.386719 676.328125 420.714844 C 676.539062 421.175781 676.886719 421.285156 677.378906 421.042969 C 691.21875 405.402344 698.902344 396.910156 700.421875 395.570312 C 709.878906 385.84375 716.214844 379.785156 719.433594 377.390625 L 722.15625 373.777344 L 720.183594 343.417969 "/><path style=" stroke:none;fill-rule:nonzero;fill:#0080ff;fill-opacity:1;" d="M 719.777344 343.417969 L 725.054688 347.851562 C 745.085938 365.054688 759.046875 378.007812 766.9375 386.714844 C 767.523438 388.058594 767.816406 389.820312 767.824219 392.007812 C 767.707031 395.609375 767.523438 398.03125 767.269531 399.28125 C 766.570312 404.390625 765.855469 409.347656 765.121094 414.144531 L 764.558594 416.773438 C 764.0625 419.074219 763.753906 420.386719 763.632812 420.714844 C 763.421875 421.175781 763.070312 421.285156 762.582031 421.042969 C 748.742188 405.402344 741.058594 396.910156 739.535156 395.570312 C 730.082031 385.84375 723.742188 379.785156 720.523438 377.390625 L 717.804688 373.777344 L 719.777344 343.417969 "/><path style=" stroke:none;fill-rule:nonzero;fill:#0080ff;fill-opacity:1;" d="M 651.460938 279.976562 L 650.546875 280.78125 C 648.09375 283.5 645.496094 290.886719 642.75 302.941406 L 640.789062 324.804688 C 640.308594 328.375 638.890625 336.234375 636.53125 348.375 C 634.519531 369.707031 631.828125 390.074219 628.464844 409.476562 C 628.277344 411.164062 628.316406 412.703125 628.582031 414.09375 C 628.691406 414.652344 629.132812 415.0625 629.90625 415.324219 C 634.355469 414.863281 639.007812 414.933594 643.863281 415.53125 C 645.582031 415.683594 647.601562 416.359375 649.917969 417.554688 C 649.089844 423.847656 648.738281 429.574219 648.863281 434.742188 L 649.410156 442.066406 C 650.011719 446.667969 651.085938 450.707031 652.640625 454.183594 C 655.746094 461.136719 660.753906 465.835938 667.667969 468.28125 C 669.457031 468.480469 671.9375 467.773438 675.105469 466.160156 C 680.742188 461.8125 688.808594 456.742188 699.296875 450.945312 C 705.082031 447.976562 710.332031 445.875 715.050781 444.640625 C 716.742188 441.320312 717.632812 439.257812 717.71875 438.449219 C 718.585938 435.511719 719.03125 432.335938 719.058594 428.910156 C 718.847656 420.308594 717.785156 415.84375 715.871094 415.523438 L 683.003906 440.515625 C 677.425781 444.589844 673.714844 446.554688 671.867188 446.402344 L 670.441406 444.632812 C 670.132812 444.078125 669.953125 443.359375 669.894531 442.46875 L 668.457031 393.789062 C 664.9375 393.148438 658.058594 395.953125 647.820312 402.203125 L 648.117188 390.410156 C 648.699219 374.777344 650.039062 359.507812 652.128906 344.605469 C 653.171875 337.152344 654.40625 329.789062 655.824219 322.519531 C 657.246094 315.246094 658.855469 308.066406 660.652344 300.980469 C 660.90625 299.921875 661.265625 299.078125 661.734375 298.449219 C 662.023438 297.855469 662.777344 297.402344 663.992188 297.082031 C 671.007812 299.902344 678.476562 302.167969 686.402344 303.878906 C 692.089844 305.476562 702.703125 306.753906 718.25 307.714844 L 721.507812 290.058594 L 651.460938 279.976562 "/><path style=" stroke:none;fill-rule:nonzero;fill:#0080ff;fill-opacity:1;" d="M 788.5 279.976562 L 789.414062 280.78125 C 791.863281 283.5 794.464844 290.886719 797.210938 302.941406 L 799.171875 324.804688 C 799.652344 328.375 801.070312 336.234375 803.425781 348.375 C 805.441406 369.707031 808.132812 390.074219 811.496094 409.476562 C 811.683594 411.164062 811.644531 412.703125 811.375 414.09375 C 811.269531 414.652344 810.828125 415.0625 810.054688 415.324219 C 805.605469 414.863281 800.953125 414.933594 796.097656 415.53125 C 794.378906 415.683594 792.359375 416.359375 790.042969 417.554688 C 790.867188 423.847656 791.21875 429.574219 791.09375 434.742188 L 790.550781 442.066406 C 789.949219 446.667969 788.871094 450.707031 787.320312 454.183594 C 784.214844 461.136719 779.203125 465.835938 772.289062 468.28125 C 770.5 468.480469 768.023438 467.773438 764.855469 466.160156 C 759.214844 461.8125 751.152344 456.742188 740.664062 450.945312 C 734.878906 447.976562 729.625 445.875 724.910156 444.640625 C 723.21875 441.320312 722.328125 439.257812 722.242188 438.449219 C 721.375 435.511719 720.925781 432.335938 720.898438 428.910156 C 721.113281 420.308594 722.175781 415.84375 724.089844 415.523438 L 756.953125 440.515625 C 762.53125 444.589844 766.246094 446.554688 768.089844 446.402344 L 769.519531 444.632812 C 769.824219 444.078125 770.007812 443.359375 770.066406 442.46875 L 771.503906 393.789062 C 775.023438 393.148438 781.902344 395.953125 792.140625 402.203125 L 791.84375 390.410156 C 791.257812 374.777344 789.921875 359.507812 787.832031 344.605469 C 786.789062 337.152344 785.554688 329.789062 784.132812 322.519531 C 782.714844 315.246094 781.105469 308.066406 779.308594 300.980469 C 779.054688 299.921875 778.695312 299.078125 778.226562 298.449219 C 777.9375 297.855469 777.183594 297.402344 775.964844 297.082031 C 768.953125 299.902344 761.484375 302.167969 753.558594 303.878906 C 747.871094 305.476562 737.253906 306.753906 721.710938 307.714844 L 718.449219 290.058594 L 788.5 279.976562 "/><path style=" stroke:none;fill-rule:nonzero;fill:#0080ff;fill-opacity:1;" d="M 644.535156 276.945312 L 632.691406 293.9375 L 613.261719 326.277344 C 611.835938 328.636719 610.945312 330.503906 610.589844 331.878906 C 612.476562 346.070312 614 356.210938 615.152344 362.3125 C 615.644531 365.296875 617.871094 376.425781 621.835938 395.691406 C 622.117188 396.925781 622.347656 397.363281 622.53125 397.007812 C 624.003906 393.238281 625.980469 385.113281 628.460938 372.628906 C 629.070312 369.5625 630.632812 358.089844 633.148438 338.210938 C 633.722656 334.277344 634.339844 330.3125 635.007812 326.320312 C 637.457031 311.917969 640.632812 295.460938 644.535156 276.945312 "/><path style=" stroke:none;fill-rule:nonzero;fill:#0080ff;fill-opacity:1;" d="M 795.421875 276.945312 L 807.265625 293.9375 L 826.699219 326.277344 C 828.125 328.636719 829.015625 330.503906 829.371094 331.878906 C 827.480469 346.070312 825.960938 356.210938 824.804688 362.3125 C 824.316406 365.296875 822.089844 376.425781 818.121094 395.691406 C 817.84375 396.925781 817.613281 397.363281 817.425781 397.007812 C 815.957031 393.238281 813.980469 385.113281 811.5 372.628906 C 810.890625 369.5625 809.324219 358.089844 806.8125 338.210938 C 806.238281 334.277344 805.617188 330.3125 804.953125 326.320312 C 802.503906 311.917969 799.328125 295.460938 795.421875 276.945312 "/><path style=" stroke:none;fill-rule:nonzero;fill:#0080ff;fill-opacity:1;" d="M 644.449219 421.253906 L 637.234375 433.109375 C 631.871094 444.625 627.976562 453.941406 625.554688 461.0625 C 624.339844 464.621094 623.496094 467.632812 623.019531 470.097656 C 622.539062 472.558594 622.429688 474.472656 622.6875 475.839844 L 623.34375 477.476562 C 630.746094 479.46875 637.316406 481.699219 643.054688 484.160156 C 651.089844 487.917969 659.523438 492.871094 668.359375 499.015625 C 669.226562 499.570312 670.660156 500.207031 672.65625 500.925781 C 674.886719 501.523438 677.160156 499.925781 679.476562 496.132812 C 684.816406 486.929688 688.136719 480.835938 689.445312 477.855469 C 691.332031 474.273438 692.464844 470.6875 692.847656 467.097656 C 692.410156 466.496094 691.71875 466.222656 690.769531 466.285156 C 677.925781 469.265625 668.570312 470.613281 662.703125 470.320312 C 654.539062 470.417969 648.367188 469.070312 644.191406 466.273438 C 642.617188 464.539062 641.863281 462.816406 641.921875 461.113281 C 642.320312 449.398438 643.160156 436.113281 644.449219 421.253906 "/><path style=" stroke:none;fill-rule:nonzero;fill:#0080ff;fill-opacity:1;" d="M 795.511719 421.253906 L 802.726562 433.109375 C 808.089844 444.625 811.980469 453.941406 814.40625 461.0625 C 815.617188 464.621094 816.464844 467.632812 816.941406 470.097656 C 817.417969 472.558594 817.53125 474.472656 817.273438 475.839844 L 816.613281 477.476562 C 809.214844 479.46875 802.644531 481.699219 796.90625 484.160156 C 788.871094 487.917969 780.4375 492.871094 771.601562 499.015625 C 770.730469 499.570312 769.300781 500.207031 767.300781 500.925781 C 765.070312 501.523438 762.800781 499.925781 760.484375 496.132812 C 755.144531 486.929688 751.824219 480.835938 750.515625 477.855469 C 748.628906 474.273438 747.492188 470.6875 747.109375 467.097656 C 747.550781 466.496094 748.242188 466.222656 749.1875 466.285156 C 762.03125 469.265625 771.386719 470.613281 777.253906 470.320312 C 785.421875 470.417969 791.59375 469.070312 795.765625 466.273438 C 797.339844 464.539062 798.097656 462.816406 798.035156 461.113281 C 797.640625 449.398438 796.800781 436.113281 795.511719 421.253906 "/><path style=" stroke:none;fill-rule:nonzero;fill:#0080ff;fill-opacity:1;" d="M 712 453.953125 L 711.9375 453.96875 C 708.875 462.222656 703.269531 475.746094 695.125 494.539062 C 692.226562 500.902344 688.976562 507.222656 685.371094 513.496094 L 700.835938 542.425781 C 702.238281 545.113281 705.515625 552.097656 710.671875 563.386719 C 711.960938 565.792969 712.96875 566.871094 713.6875 566.621094 C 713.941406 566.535156 714.128906 566.398438 714.246094 566.21875 C 713.34375 554.71875 712.785156 546.992188 712.5625 543.046875 C 712.449219 541.488281 712.414062 539.464844 712.464844 536.972656 C 712.472656 534.890625 712.519531 532.617188 712.609375 530.160156 C 713.324219 515.351562 713.714844 506.613281 713.777344 503.945312 C 713.941406 499.65625 714.007812 495.96875 713.984375 492.875 C 713.835938 485.992188 713.484375 474.789062 712.933594 459.269531 C 712.730469 456.039062 712.417969 454.269531 712 453.953125 "/><path style=" stroke:none;fill-rule:nonzero;fill:#0080ff;fill-opacity:1;" d="M 727.960938 453.953125 L 728.023438 453.96875 C 731.085938 462.222656 736.691406 475.746094 744.835938 494.539062 C 747.730469 500.902344 750.984375 507.222656 754.589844 513.496094 L 739.125 542.425781 C 737.722656 545.113281 734.441406 552.097656 729.289062 563.386719 C 727.996094 565.792969 726.992188 566.871094 726.273438 566.621094 C 726.019531 566.535156 725.832031 566.398438 725.714844 566.21875 C 726.613281 554.71875 727.175781 546.992188 727.398438 543.046875 C 727.511719 541.488281 727.542969 539.464844 727.496094 536.972656 C 727.488281 534.890625 727.4375 532.617188 727.351562 530.160156 C 726.636719 515.351562 726.246094 506.613281 726.179688 503.945312 C 726.019531 499.65625 725.949219 495.96875 725.976562 492.875 C 726.125 485.992188 726.472656 474.789062 727.023438 459.269531 C 727.230469 456.039062 727.542969 454.269531 727.960938 453.953125 "/><path style=" stroke:none;fill-rule:nonzero;fill:#0080ff;fill-opacity:1;" d="M 703.085938 256.984375 L 702.230469 256.984375 C 697.230469 256.988281 691.496094 257.664062 685.023438 259.011719 C 684.414062 259.113281 683.128906 259.492188 681.167969 260.148438 C 678.15625 261.234375 675.515625 262.300781 673.253906 263.351562 C 670.167969 264.699219 667.308594 266.46875 664.675781 268.664062 C 661.359375 271.71875 658.175781 275.097656 655.125 278.800781 C 655.1875 278.960938 655.679688 278.835938 656.601562 278.425781 C 659.488281 276.652344 662.574219 275.109375 665.855469 273.800781 C 669.582031 272.390625 673.429688 271.253906 677.398438 270.386719 C 678.105469 270.574219 678.371094 270.894531 678.191406 271.355469 C 674.582031 278.105469 673.050781 281.996094 673.605469 283.023438 C 674.105469 283.117188 675.257812 282.679688 677.058594 281.714844 C 685.820312 276.449219 690.976562 273.480469 692.53125 272.808594 C 693.273438 272.628906 693.585938 272.785156 693.46875 273.273438 L 691.453125 280.742188 C 691.414062 281.125 691.566406 281.339844 691.910156 281.382812 C 692.441406 281.386719 693.570312 280.984375 695.292969 280.164062 C 698.808594 278.457031 702.015625 276.800781 704.917969 275.195312 C 705.601562 274.925781 706.078125 274.804688 706.339844 274.835938 C 706.417969 274.839844 706.480469 274.878906 706.527344 274.957031 C 705.460938 278.183594 704.53125 281.578125 703.738281 285.140625 C 703.355469 286.855469 703.4375 287.789062 703.988281 287.941406 L 708 285.863281 C 709 285.367188 709.785156 285.03125 710.351562 284.859375 C 712.59375 284.1875 715.300781 283.695312 718.476562 283.382812 L 718.328125 256.984375 C 716.859375 257.167969 715.09375 257.269531 713.027344 257.300781 C 708.523438 257.066406 705.207031 256.960938 703.085938 256.984375 "/><path style=" stroke:none;fill-rule:nonzero;fill:#0080ff;fill-opacity:1;" d="M 736.875 256.984375 L 737.730469 256.984375 C 742.730469 256.988281 748.464844 257.664062 754.933594 259.011719 C 755.546875 259.113281 756.832031 259.492188 758.792969 260.148438 C 761.804688 261.234375 764.445312 262.300781 766.707031 263.351562 C 769.792969 264.699219 772.652344 266.46875 775.285156 268.664062 C 778.597656 271.71875 781.78125 275.097656 784.835938 278.800781 C 784.773438 278.960938 784.28125 278.835938 783.359375 278.425781 C 780.472656 276.652344 777.386719 275.109375 774.105469 273.800781 C 770.378906 272.390625 766.53125 271.253906 762.5625 270.386719 C 761.851562 270.574219 761.589844 270.894531 761.765625 271.355469 C 765.378906 278.105469 766.910156 281.996094 766.355469 283.023438 C 765.855469 283.117188 764.703125 282.679688 762.902344 281.714844 C 754.140625 276.449219 748.980469 273.480469 747.429688 272.808594 C 746.6875 272.628906 746.375 272.785156 746.488281 273.273438 L 748.503906 280.742188 C 748.546875 281.125 748.394531 281.339844 748.050781 281.382812 C 747.519531 281.386719 746.390625 280.984375 744.667969 280.164062 C 741.152344 278.457031 737.945312 276.800781 735.042969 275.195312 C 734.355469 274.925781 733.882812 274.804688 733.621094 274.835938 C 733.539062 274.839844 733.476562 274.878906 733.433594 274.957031 C 734.5 278.183594 735.429688 281.578125 736.222656 285.140625 C 736.605469 286.855469 736.523438 287.789062 735.972656 287.941406 L 731.960938 285.863281 C 730.960938 285.367188 730.175781 285.03125 729.609375 284.859375 C 727.367188 284.1875 724.65625 283.695312 721.480469 283.382812 L 721.632812 256.984375 C 723.101562 257.167969 724.867188 257.269531 726.929688 257.300781 C 731.4375 257.066406 734.75 256.960938 736.875 256.984375 "/><path style=" stroke:none;fill-rule:nonzero;fill:#0080ff;fill-opacity:1;" d="M 559.1875 243.644531 L 551.566406 243.816406 C 536.566406 244.503906 523.050781 247.265625 511.019531 252.097656 L 505.125 254.6875 C 500.527344 256.921875 497.597656 258.601562 496.339844 259.71875 C 494.300781 261.292969 492.367188 263.214844 490.539062 265.484375 L 487.875 269.152344 C 482.445312 277.902344 478.496094 288.007812 476.019531 299.472656 C 475.226562 302.90625 474.628906 307.949219 474.222656 314.59375 C 474.535156 338.308594 474.460938 350.78125 474.003906 352.007812 C 473.710938 358.429688 470.800781 364.828125 465.269531 371.207031 C 465.203125 371.726562 465.777344 372.019531 466.992188 372.089844 C 474.519531 371.523438 480.878906 367.316406 486.070312 359.460938 C 488.015625 356.914062 489.800781 353.125 491.429688 348.097656 C 494.167969 340.078125 497.449219 327.851562 501.269531 311.40625 C 501.765625 310.101562 502.339844 308.855469 502.996094 307.679688 C 507.421875 300.449219 513.65625 295.855469 521.691406 293.898438 C 533.398438 290.398438 547.808594 292.28125 564.925781 299.542969 C 569.527344 301.324219 575.164062 304.347656 581.84375 308.617188 C 587.5625 312.457031 594.902344 318.664062 603.863281 327.234375 C 604.894531 328.027344 605.707031 328.378906 606.304688 328.289062 C 611.800781 319.695312 618.453125 307.578125 626.261719 291.9375 C 630.328125 283.347656 633.390625 275.640625 635.453125 268.816406 L 627.28125 271.21875 L 620.878906 269.402344 C 616.738281 268.078125 612.863281 266.519531 609.246094 264.726562 C 597.460938 255.847656 590.222656 250.839844 587.53125 249.707031 C 577.417969 245.226562 567.96875 243.203125 559.1875 243.644531 "/><path style=" stroke:none;fill-rule:nonzero;fill:#0080ff;fill-opacity:1;" d="M 880.773438 243.644531 L 888.394531 243.816406 C 903.394531 244.503906 916.910156 247.265625 928.941406 252.097656 L 934.832031 254.6875 C 939.433594 256.921875 942.359375 258.601562 943.617188 259.71875 C 945.660156 261.292969 947.59375 263.214844 949.421875 265.484375 L 952.085938 269.152344 C 957.515625 277.902344 961.464844 288.007812 963.941406 299.472656 C 964.734375 302.90625 965.332031 307.949219 965.738281 314.59375 C 965.425781 338.308594 965.496094 350.78125 965.953125 352.007812 C 966.246094 358.429688 969.160156 364.828125 974.691406 371.207031 C 974.753906 371.726562 974.179688 372.019531 972.964844 372.089844 C 965.441406 371.523438 959.082031 367.316406 953.890625 359.460938 C 951.945312 356.914062 950.15625 353.125 948.53125 348.097656 C 945.792969 340.078125 942.511719 327.851562 938.691406 311.40625 C 938.195312 310.101562 937.617188 308.855469 936.964844 307.679688 C 932.535156 300.449219 926.304688 295.855469 918.269531 293.898438 C 906.5625 290.398438 892.152344 292.28125 875.03125 299.542969 C 870.433594 301.324219 864.792969 304.347656 858.117188 308.617188 C 852.398438 312.457031 845.058594 318.664062 836.09375 327.234375 C 835.066406 328.027344 834.253906 328.378906 833.652344 328.289062 C 828.160156 319.695312 821.507812 307.578125 813.699219 291.9375 C 809.632812 283.347656 806.570312 275.640625 804.507812 268.816406 L 812.679688 271.21875 L 819.082031 269.402344 C 823.222656 268.078125 827.097656 266.519531 830.714844 264.726562 C 842.5 255.847656 849.738281 250.839844 852.425781 249.707031 C 862.539062 245.226562 871.988281 243.203125 880.773438 243.644531 "/></g></svg>